<svg xmlns="http://www.w3.org/2000/svg" width="18.8" height="20.733" viewBox="0 0 18.8 20.733">
  <path id="ic_date_range_24px" d="M9.267,11.33H7.178V13.4H9.267Zm4.178,0H11.355V13.4h2.089Zm4.178,0H15.533V13.4h2.089Zm2.089-7.257H18.666V2H16.577V4.073H8.222V2H6.133V4.073H5.089A2.072,2.072,0,0,0,3.01,6.147L3,20.66a2.081,2.081,0,0,0,2.089,2.073H19.711A2.087,2.087,0,0,0,21.8,20.66V6.147A2.087,2.087,0,0,0,19.711,4.073Zm0,16.587H5.089V9.257H19.711Z" transform="translate(-3 -2)" fill="#13beff"/>
</svg>
