<svg id="ic_favorite_border_24px" xmlns="http://www.w3.org/2000/svg" width="16.806" height="15.85" viewBox="0 0 16.806 15.85">
  <path id="ic_favorite_border_24px-2" data-name="ic_favorite_border_24px" d="M14.185,3A4.978,4.978,0,0,0,10.4,4.805,4.978,4.978,0,0,0,6.622,3,4.642,4.642,0,0,0,2,7.751c0,3.265,2.857,5.925,7.185,9.968L10.4,18.85l1.218-1.14c4.328-4.034,7.185-6.694,7.185-9.959A4.642,4.642,0,0,0,14.185,3Zm-3.7,13.431-.084.086-.084-.086c-4-3.723-6.638-6.185-6.638-8.681A2.913,2.913,0,0,1,6.622,4.728a3.285,3.285,0,0,1,3,2.038h1.571a3.264,3.264,0,0,1,2.992-2.038,2.913,2.913,0,0,1,2.941,3.023C17.126,10.247,14.487,12.709,10.487,16.431Z" transform="translate(-2 -3)" fill="#13beff"/>
</svg>
