<svg xmlns="http://www.w3.org/2000/svg" width="17.218" height="19.215" viewBox="0 0 17.218 19.215">
  <path id="ic_share_24px" d="M17.348,15.581a2.773,2.773,0,0,0-1.875.743l-6.82-4a3.183,3.183,0,0,0,.086-.675,3.183,3.183,0,0,0-.086-.675L15.4,7.006a2.845,2.845,0,0,0,1.951.781,2.894,2.894,0,1,0-2.87-2.894,3.183,3.183,0,0,0,.086.675L7.821,9.533A2.845,2.845,0,0,0,5.87,8.752a2.894,2.894,0,0,0,0,5.788,2.845,2.845,0,0,0,1.951-.781l6.811,4.013a2.743,2.743,0,0,0-.077.627,2.793,2.793,0,1,0,2.793-2.817Z" transform="translate(-3 -2)" fill="#13beff"/>
</svg>
